<svg xmlns="http://www.w3.org/2000/svg" width="85" height="80" viewBox="0 0 85 80"><g transform="translate(-683 -1231)"><path d="M27,1A26,26,0,1,1,1,27,26,26,0,0,1,27,1Z" transform="translate(715 1230)" fill="#bee3f8"/><path d="M38,65A163.974,163.974,0,0,1,3.665,61.388L2,61.031V45.4a.159.159,0,0,0,0-.022v-.031c0-.017,0-.034,0-.052V39.806c0-.041,0-.078,0-.118l.036-2.052H73.961L74,39.688c0,.039,0,.077,0,.118V45.3c0,.022,0,.044,0,.066V45.4l0,15.633-1.665.355A163.974,163.974,0,0,1,38,65ZM6.224,52.124v5.53A160.1,160.1,0,0,0,38,60.823a160.115,160.115,0,0,0,31.774-3.169V52.123a7.732,7.732,0,0,1-3.536.848,7.828,7.828,0,0,1-5.647-2.42,7.73,7.73,0,0,1-5.648,2.42A7.828,7.828,0,0,1,49.3,50.55a7.73,7.73,0,0,1-5.648,2.42A7.828,7.828,0,0,1,38,50.55a7.8,7.8,0,0,1-11.3,0,7.8,7.8,0,0,1-11.3,0,7.8,7.8,0,0,1-9.184,1.573ZM62.7,41.813V45.3a3.536,3.536,0,0,0,7.072,0V41.813Zm-11.3,0V45.3a3.536,3.536,0,0,0,7.071,0V41.813Zm-11.3,0V45.3a3.536,3.536,0,0,0,7.071,0V41.813Zm-11.3,0V45.3a3.536,3.536,0,0,0,7.071,0V41.813Zm-11.3,0V45.3a3.536,3.536,0,0,0,7.071,0V41.813Zm-11.3,0V45.3a3.536,3.536,0,0,0,7.071,0V41.813ZM73.961,30.33H2.039L2,28.279c0-.04,0-.078,0-.119V22.671c0-.017,0-.035,0-.052s0-.018,0-.027v-.025L2,6.935l1.665-.357a165.051,165.051,0,0,1,68.67,0L74,6.935V22.567l0,.035v.044a.073.073,0,0,0,0,.014v5.5c0,.039,0,.077,0,.116l-.037,2.051ZM66.24,19.174a3.521,3.521,0,0,0-3.536,3.5v3.482h7.072V22.671A3.521,3.521,0,0,0,66.24,19.174Zm-11.3,0a3.521,3.521,0,0,0-3.536,3.5v3.482H58.48V22.671A3.521,3.521,0,0,0,54.944,19.174Zm-11.3,0a3.521,3.521,0,0,0-3.536,3.5v3.482h7.072V22.671A3.521,3.521,0,0,0,43.648,19.174Zm-11.3,0a3.521,3.521,0,0,0-3.536,3.5v3.482h7.071V22.671A3.52,3.52,0,0,0,32.352,19.174Zm-11.3,0a3.521,3.521,0,0,0-3.536,3.5v3.482h7.07V22.671A3.52,3.52,0,0,0,21.056,19.174Zm-11.3,0a3.521,3.521,0,0,0-3.536,3.5v3.482H13.3V22.671A3.52,3.52,0,0,0,9.761,19.174ZM54.944,15a7.831,7.831,0,0,1,5.648,2.419,7.807,7.807,0,0,1,9.185-1.573V10.314a160.805,160.805,0,0,0-63.551,0v5.53a7.8,7.8,0,0,1,9.184,1.572A7.832,7.832,0,0,1,21.056,15,7.731,7.731,0,0,1,26.7,17.416,7.832,7.832,0,0,1,32.352,15,7.731,7.731,0,0,1,38,17.416a7.8,7.8,0,0,1,11.295,0A7.836,7.836,0,0,1,54.944,15Z" transform="translate(681 1246)" fill="#4299e1"/></g></svg>