<svg xmlns="http://www.w3.org/2000/svg" width="195.699" height="43.702" viewBox="0 0 195.699 43.702"><g transform="translate(-697 -634)"><path d="M807.458,907.6h-5.427l8.269-23.954h6.527l8.258,23.954h-5.428l-1.778-5.462h-8.643Zm3.065-9.416H816.6l-2.948-9.065h-.187Z" transform="translate(-105.031 -239.298)" fill="#1a202c"/><path d="M827.632,907.6V883.646h4.983v9.006h.152a6.811,6.811,0,0,1,.959-1.486,4.949,4.949,0,0,1,1.638-1.256,5.575,5.575,0,0,1,2.514-.509,6.744,6.744,0,0,1,3.626,1.023,7.2,7.2,0,0,1,2.649,3.076,11.7,11.7,0,0,1,1,5.141,11.872,11.872,0,0,1-.97,5.07,7.271,7.271,0,0,1-2.62,3.123,6.7,6.7,0,0,1-3.7,1.058,5.7,5.7,0,0,1-2.463-.48,4.964,4.964,0,0,1-1.649-1.21,6.392,6.392,0,0,1-.988-1.479h-.222V907.6Zm4.878-8.982a6.746,6.746,0,0,0,.988,3.853,3.4,3.4,0,0,0,5.6-.023,6.867,6.867,0,0,0,.971-3.83,6.758,6.758,0,0,0-.965-3.8,3.164,3.164,0,0,0-2.813-1.456,3.2,3.2,0,0,0-2.8,1.42A6.634,6.634,0,0,0,832.51,898.618Z" transform="translate(-105.031 -239.298)" fill="#1a202c"/><path d="M863.082,894.757l-4.562.281a2.6,2.6,0,0,0-.948-1.485,3.156,3.156,0,0,0-2.058-.62,3.72,3.72,0,0,0-1.959.485,1.436,1.436,0,0,0-.79,1.292,1.343,1.343,0,0,0,.509,1.088,4.138,4.138,0,0,0,1.772.714l3.251.654q5.183,1.065,5.194,4.867a4.911,4.911,0,0,1-1.035,3.1,6.754,6.754,0,0,1-2.837,2.076,10.757,10.757,0,0,1-4.129.743,9.694,9.694,0,0,1-5.684-1.492,5.716,5.716,0,0,1-2.468-4.064l4.9-.257a2.527,2.527,0,0,0,1.082,1.66,4.547,4.547,0,0,0,4.292.047,1.545,1.545,0,0,0,.813-1.31q-.035-1.332-2.3-1.79l-3.111-.619q-5.217-1.041-5.194-5.134a4.743,4.743,0,0,1,2.077-4.094,9.308,9.308,0,0,1,5.538-1.5,8.891,8.891,0,0,1,5.363,1.438A5.565,5.565,0,0,1,863.082,894.757Z" transform="translate(-105.031 -239.298)" fill="#1a202c"/><path d="M875.864,889.634v3.743h-3.381v8.7a1.684,1.684,0,0,0,.468,1.392,1.93,1.93,0,0,0,1.217.362,3.967,3.967,0,0,0,.7-.063l.538-.1.783,3.707q-.375.117-1.052.276a8.808,8.808,0,0,1-1.65.193,6.388,6.388,0,0,1-4.357-1.176,4.671,4.671,0,0,1-1.631-3.935v-9.358h-2.456v-3.743H867.5v-4.3h4.982v4.3Z" transform="translate(-105.031 -239.298)" fill="#1a202c"/><path d="M878.774,907.6V889.634H883.6v3.135h.187a4.665,4.665,0,0,1,1.649-2.532,4.35,4.35,0,0,1,2.667-.86,6.8,6.8,0,0,1,1.567.175v4.422a5.146,5.146,0,0,0-.971-.193,9.314,9.314,0,0,0-1.134-.077,3.8,3.8,0,0,0-2.732,1.036,3.561,3.561,0,0,0-1.081,2.7V907.6Z" transform="translate(-105.031 -239.298)" fill="#1a202c"/><path d="M896.527,907.939a6.654,6.654,0,0,1-4.269-1.345,5.654,5.654,0,0,1-.749-7.17,5.472,5.472,0,0,1,2.486-1.679,14.118,14.118,0,0,1,3.316-.7,25.532,25.532,0,0,0,3.345-.491q1-.258,1.006-1.123v-.07a2.162,2.162,0,0,0-.7-1.72,2.9,2.9,0,0,0-1.971-.608,3.54,3.54,0,0,0-2.14.584,2.744,2.744,0,0,0-1.053,1.486l-4.609-.374a6.146,6.146,0,0,1,2.556-3.9,8.944,8.944,0,0,1,5.269-1.438,10.9,10.9,0,0,1,3.743.631A6.223,6.223,0,0,1,905.574,892a5.4,5.4,0,0,1,1.071,3.48V907.6h-4.726v-2.491h-.14a5.181,5.181,0,0,1-1.96,2.041A6.266,6.266,0,0,1,896.527,907.939Zm1.427-3.439a3.853,3.853,0,0,0,2.69-.953,3.066,3.066,0,0,0,1.053-2.368v-1.907a2.892,2.892,0,0,1-.907.351q-.613.152-1.309.263t-1.247.193a4.935,4.935,0,0,0-2.11.737,1.821,1.821,0,0,0-.8,1.6,1.784,1.784,0,0,0,.743,1.556A3.189,3.189,0,0,0,897.954,904.5Z" transform="translate(-105.031 -239.298)" fill="#1a202c"/><path d="M918.3,907.951a9.137,9.137,0,0,1-4.742-1.175,7.815,7.815,0,0,1-3.041-3.27,11.506,11.506,0,0,1,.011-9.667,7.924,7.924,0,0,1,3.047-3.263,9.029,9.029,0,0,1,4.7-1.175,9.4,9.4,0,0,1,4.123.853,6.825,6.825,0,0,1,2.795,2.4,7.071,7.071,0,0,1,1.129,3.626h-4.7a3.674,3.674,0,0,0-1.046-2.17,3.046,3.046,0,0,0-2.217-.824,3.321,3.321,0,0,0-2.784,1.391,6.434,6.434,0,0,0-1.053,3.943,6.585,6.585,0,0,0,1.047,3.982,3.306,3.306,0,0,0,2.79,1.409,3.146,3.146,0,0,0,2.164-.777,3.58,3.58,0,0,0,1.1-2.217h4.7a7.4,7.4,0,0,1-1.117,3.626,6.744,6.744,0,0,1-2.754,2.438A9.238,9.238,0,0,1,918.3,907.951Z" transform="translate(-105.031 -239.298)" fill="#1a202c"/><path d="M938.759,889.634v3.743h-3.381v8.7a1.684,1.684,0,0,0,.468,1.392,1.93,1.93,0,0,0,1.217.362,3.967,3.967,0,0,0,.7-.063l.538-.1.784,3.707q-.375.117-1.053.276a8.809,8.809,0,0,1-1.65.193,6.388,6.388,0,0,1-4.357-1.176,4.671,4.671,0,0,1-1.631-3.935v-9.358H927.94v-3.743H930.4v-4.3h4.982v4.3Z" transform="translate(-105.031 -239.298)" fill="#1a202c"/><path d="M982.854,916H957.108a11.89,11.89,0,0,1-11.877-11.877V886.175A11.89,11.89,0,0,1,957.108,874.3h25.746a11.89,11.89,0,0,1,11.877,11.877v17.948A11.89,11.89,0,0,1,982.854,916Zm-25.746-40.7a10.889,10.889,0,0,0-10.877,10.877v17.948A10.889,10.889,0,0,0,957.108,915h25.746a10.888,10.888,0,0,0,10.877-10.877V886.175A10.888,10.888,0,0,0,982.854,875.3Z" transform="translate(-103.031 -239.298)" fill="#1a202c" stroke="#1a202c" stroke-width="2"/><path d="M970.268,883.652H975.3v15.837a7.687,7.687,0,0,1-4.789,7.473,13.948,13.948,0,0,1-10.287,0,7.956,7.956,0,0,1-3.515-2.871,8.066,8.066,0,0,1-1.269-4.6V883.652H960.5v15.661a3.637,3.637,0,0,0,1.387,3.017,5.415,5.415,0,0,0,3.479,1.1,5.476,5.476,0,0,0,3.515-1.1,3.639,3.639,0,0,0,1.386-3.017Z" transform="translate(-103.031 -239.298)" fill="#1a202c"/><path d="M984.526,883.652v23.954h-5.065V883.652Z" transform="translate(-103.031 -239.298)" fill="#1a202c"/></g></svg>