<svg xmlns="http://www.w3.org/2000/svg" width="113.166" height="113.92" viewBox="0 0 113.166 113.92"><g transform="translate(-0.834 0.098)"><path d="M0,0H91.655" transform="translate(7.345 112.822)" fill="none" stroke="#2a5082" stroke-miterlimit="10" stroke-width="2"/><path d="M0,0H7.333" transform="translate(100.452 112.822)" fill="none" stroke="#2a5082" stroke-miterlimit="10" stroke-width="2"/><path d="M0,0H3.666" transform="translate(110.334 112.822)" fill="none" stroke="#2a5082" stroke-miterlimit="10" stroke-width="2"/><path d="M0,0H3.666" transform="translate(0.834 112.822)" fill="none" stroke="#2a5082" stroke-miterlimit="10" stroke-width="2"/><g transform="translate(9 17)"><path d="M25.832,56.338a5.741,5.741,0,0,1-5.741-5.74V0a36.592,36.592,0,1,0,44.4,56.339H25.832Z" transform="translate(0.882 18.516)" fill="#e9eaeb"/><path d="M33.007,74.625H5.741A5.741,5.741,0,0,1,0,68.885V5.741A5.741,5.741,0,0,1,5.741,0H53.1a5.74,5.74,0,0,1,5.74,5.741V43.053" transform="translate(20.973 0.229)" fill="none" stroke="#2a5082" stroke-miterlimit="10" stroke-width="2"/><path d="M21.526,51.664H0V0H47.358V31.572" transform="translate(26.714 11.71)" fill="none" stroke="#2a5082" stroke-miterlimit="10" stroke-width="2"/><path d="M31.571,17.221H28.7a3.014,3.014,0,0,0-2.87-2.87h-2.87a3.87,3.87,0,0,0-2.871-1.436H17.22V2.87a2.87,2.87,0,1,0-5.74,0V24.4l-1.917,1.84-3.75-5.813C3.514,17.261,0,19.036,0,20.424c0,0,4.354,13.893,4.978,14.868,1,1.57,5.068,5.1,5.068,6.326v5.741H31.572V43.053c0-1.935,2.87-4.271,2.87-7.176V20.091A3.015,3.015,0,0,0,31.571,17.221Z" transform="translate(49.677 33.237)" fill="#fff"/><path d="M10.046,47.359V41.618c0-1.228-4.066-4.756-5.068-6.326C4.355,34.316,0,20.424,0,20.424c0-1.388,3.515-3.163,5.813,0l3.75,5.813L11.48,24.4V2.87A2.87,2.87,0,0,1,14.35,0h0a2.87,2.87,0,0,1,2.87,2.87V12.915h2.87a3.866,3.866,0,0,1,2.871,1.436h2.87a3.014,3.014,0,0,1,2.87,2.87h2.87a3.014,3.014,0,0,1,2.87,2.87V35.877c0,2.9-2.87,5.241-2.87,7.176v4.306" transform="translate(49.676 33.237)" fill="none" stroke="#2a5082" stroke-miterlimit="10" stroke-width="2"/><path d="M0,0V7.176" transform="translate(72.638 47.588)" fill="none" stroke="#2a5082" stroke-miterlimit="10" stroke-width="2"/><path d="M0,0V5.74" transform="translate(78.378 50.458)" fill="none" stroke="#2a5082" stroke-miterlimit="10" stroke-width="2"/><rect width="27.267" height="16.176" transform="translate(56.852 79.16)" fill="#c1f6fd"/><path d="M27.266,16.176V0H0V16.176" transform="translate(56.852 79.16)" fill="none" stroke="#2a5082" stroke-miterlimit="10" stroke-width="2"/><path d="M0,0H11.482" transform="translate(45.37 5.97)" fill="none" stroke="#2a5082" stroke-miterlimit="10" stroke-width="2"/><path d="M17.251,14.351H.03L0,0H17.222Z" transform="translate(32.454 17.451)" fill="#fff" stroke="#2a5082" stroke-miterlimit="10" stroke-width="2"/><path d="M0,0H15.787" transform="translate(53.98 20.321)" fill="none" stroke="#2a5082" stroke-miterlimit="10" stroke-width="2"/><path d="M0,0H11.482" transform="translate(53.98 26.061)" fill="none" stroke="#2a5082" stroke-miterlimit="10" stroke-width="2"/><path d="M0,0H20.091" transform="translate(31.019 37.542)" fill="none" stroke="#2a5082" stroke-miterlimit="10" stroke-width="2"/><path d="M0,0H20.091" transform="translate(31.019 43.282)" fill="none" stroke="#2a5082" stroke-miterlimit="10" stroke-width="2"/><path d="M0,0H11.481" transform="translate(31.019 49.022)" fill="none" stroke="#2a5082" stroke-miterlimit="10" stroke-width="2"/></g><path d="M54.991,9.931H42.341a6.833,6.833,0,0,0-5.717-3.722,6.194,6.194,0,0,0-2.308.48A10.205,10.205,0,0,0,24.884,0C19.323,0,14.815,6.266,14.8,9.932H0" transform="translate(4.675 0.902)" fill="none" stroke="#bcc0c4" stroke-miterlimit="10" stroke-width="2"/><path d="M12.831,0H0" transform="translate(1.008 25.498)" fill="none" stroke="#bcc0c4" stroke-miterlimit="10" stroke-width="2"/><path d="M0,0H3.668" transform="translate(17.505 25.498)" fill="none" stroke="#bcc0c4" stroke-miterlimit="10" stroke-width="2"/><path d="M0,0H3.665" transform="translate(63.333 10.833)" fill="none" stroke="#bcc0c4" stroke-miterlimit="10" stroke-width="2"/><path d="M0,0H3.666" transform="translate(70.665 10.833)" fill="none" stroke="#bcc0c4" stroke-miterlimit="10" stroke-width="2"/></g></svg>