<svg xmlns="http://www.w3.org/2000/svg" width="121.566" height="109.164" viewBox="0 0 121.566 109.164"><g transform="translate(0 0.164)"><rect width="49.386" height="74.08" transform="translate(32.292 33.92)" fill="none" stroke="#2a5082" stroke-miterlimit="10" stroke-width="2"/><rect width="37.989" height="9.498" transform="translate(37.99 24.423)" fill="#e9eaeb" stroke="#2a5082" stroke-miterlimit="10" stroke-width="2"/><rect width="11.395" height="15.195" transform="translate(53.186 92.805)" fill="#e9eaeb" stroke="#2a5082" stroke-miterlimit="10" stroke-width="2"/><path d="M0,9.5V0H9.5V9.5" transform="translate(41.789 51.016)" fill="none" stroke="#2a5082" stroke-miterlimit="10" stroke-width="2"/><path d="M0,9.5V0H9.5V9.5" transform="translate(41.789 66.211)" fill="none" stroke="#2a5082" stroke-miterlimit="10" stroke-width="2"/><rect width="18.995" height="47.486" transform="translate(13.297 60.514)" fill="none" stroke="#2a5082" stroke-miterlimit="10" stroke-width="2"/><rect width="13.297" height="9.498" transform="translate(18.995 51.016)" fill="#e9eaeb" stroke="#2a5082" stroke-miterlimit="10" stroke-width="2"/><path d="M20.757,0A20.757,20.757,0,0,0,0,20.756C0,38.668,17.7,41.09,19.188,59.3a1.568,1.568,0,0,0,3.132,0C23.809,41.09,41.51,38.668,41.51,20.756A20.754,20.754,0,0,0,20.757,0Z" transform="translate(61.061 47.217)" fill="#c1f6fd" stroke="#2a5082" stroke-miterlimit="10" stroke-width="2"/><circle cx="7.598" cy="7.598" r="7.598" transform="translate(74.08 60.514)" fill="#fff" stroke="#2a5082" stroke-miterlimit="10" stroke-width="2"/><path d="M0,0H94.975" transform="translate(7.598 108)" fill="none" stroke="#2a5082" stroke-miterlimit="10" stroke-width="2"/><path d="M56.984,10.291H43.875a7.082,7.082,0,0,0-5.924-3.857,6.426,6.426,0,0,0-2.391.5A10.575,10.575,0,0,0,25.786,0C20.024,0,15.352,6.493,15.341,10.292H0" transform="translate(11.397 0.836)" fill="none" stroke="#bcc0c4" stroke-miterlimit="10" stroke-width="2"/><path d="M13.3,0H0" transform="translate(7.598 26.323)" fill="none" stroke="#bcc0c4" stroke-miterlimit="10" stroke-width="2"/><path d="M36.091,8.316H30.442c-1.313-3.8-4.04-4.746-7.307-4.35A8.053,8.053,0,0,0,16.041,0c-4.52,0-8.182,2.618-8.223,8.316H0" transform="translate(85.475 12.309)" fill="none" stroke="#bcc0c4" stroke-miterlimit="10" stroke-width="2"/><path d="M0,0H3.8" transform="translate(24.693 26.323)" fill="none" stroke="#bcc0c4" stroke-miterlimit="10" stroke-width="2"/><path d="M0,0H3.8" transform="translate(72.181 11.127)" fill="none" stroke="#bcc0c4" stroke-miterlimit="10" stroke-width="2"/><path d="M0,0H3.8" transform="translate(79.778 11.127)" fill="none" stroke="#bcc0c4" stroke-miterlimit="10" stroke-width="2"/><path d="M3.8,0H0" transform="translate(0 108)" fill="none" stroke="#2a5082" stroke-miterlimit="10" stroke-width="2"/><path d="M0,0H7.6" transform="translate(106.37 108)" fill="none" stroke="#2a5082" stroke-miterlimit="10" stroke-width="2"/><path d="M0,0H3.8" transform="translate(117.768 108)" fill="none" stroke="#2a5082" stroke-miterlimit="10" stroke-width="2"/></g></svg>