<svg xmlns="http://www.w3.org/2000/svg" width="117.722" height="115.292" viewBox="0 0 117.722 115.292"><g transform="translate(-0.278 0.279)"><g transform="translate(12 20)"><circle cx="41.837" cy="41.837" r="41.837" transform="translate(0.806 5.663)" fill="#e9eaeb"/><path d="M36.118,35.469a8.718,8.718,0,0,0-8.228-5.834h-12.2v-12.2l3.486,3.486h12.2c7.974,0,6.973-8.716,6.973-8.716h-12.2L13.945,0H6.972A6.973,6.973,0,0,0,0,6.973V33.12A10.46,10.46,0,0,0,10.459,43.579H26.147L36.606,64.5h9.67Z" transform="translate(9.522 30.068)" fill="#c1f6fd"/><path d="M8.716,20.754A8.772,8.772,0,0,1,0,11.86V8.894A8.772,8.772,0,0,1,8.716,0a8.771,8.771,0,0,1,8.716,8.894V11.86A8.773,8.773,0,0,1,8.716,20.754Z" transform="translate(13.008 3.92)" fill="#fff" stroke="#2a5082" stroke-miterlimit="10" stroke-width="2"/><path d="M0,0H61.012" transform="translate(25.21 50.986)" fill="none" stroke="#2a5082" stroke-miterlimit="10" stroke-width="2"/><path d="M0,0H10.46V6.972" transform="translate(51.357 44.014)" fill="none" stroke="#2a5082" stroke-miterlimit="10" stroke-width="2"/><path d="M0,27.891V20.919H10.459V0H1.743" transform="translate(68.79 23.095)" fill="none" stroke="#2a5082" stroke-miterlimit="10" stroke-width="2"/><path d="M5.229,36.607H0V0H5.229A3.486,3.486,0,0,1,8.715,3.486V33.12A3.487,3.487,0,0,1,5.229,36.607Z" transform="translate(63.561 0.434)" fill="#fff" stroke="#2a5082" stroke-miterlimit="10" stroke-width="2"/><path d="M0,0V10.46" transform="translate(18.237 84.106)" fill="none" stroke="#2a5082" stroke-miterlimit="10" stroke-width="2"/><path d="M36.607,64.5,26.148,43.579H10.459A10.46,10.46,0,0,1,0,33.12V6.973A6.973,6.973,0,0,1,6.972,0h6.973l12.2,12.2h12.2s1,8.716-6.973,8.716h-12.2L8.716,10.459" transform="translate(9.521 30.068)" fill="none" stroke="#2a5082" stroke-miterlimit="10" stroke-width="2"/><path d="M0,0V12.2H12.2a8.718,8.718,0,0,1,8.228,5.834L30.589,47.066" transform="translate(25.21 47.5)" fill="none" stroke="#2a5082" stroke-miterlimit="10" stroke-width="2"/><path d="M0,0V33.121A13.946,13.946,0,0,0,13.945,47.065H29.634" transform="translate(2.548 33.555)" fill="none" stroke="#2a5082" stroke-miterlimit="10" stroke-width="2"/><path d="M0,0H13.946l5.23,6.973" transform="translate(2.548 59.703)" fill="none" stroke="#2a5082" stroke-miterlimit="10" stroke-width="2"/><path d="M0,0H3.486" transform="translate(89.709 50.986)" fill="none" stroke="#2a5082" stroke-miterlimit="10" stroke-width="2"/></g><path d="M0,0H91.655" transform="translate(11.345 113.822)" fill="none" stroke="#2a5082" stroke-miterlimit="10" stroke-width="2"/><path d="M0,0H7.333" transform="translate(104.452 113.822)" fill="none" stroke="#2a5082" stroke-miterlimit="10" stroke-width="2"/><path d="M0,0H3.666" transform="translate(114.334 113.822)" fill="none" stroke="#2a5082" stroke-miterlimit="10" stroke-width="2"/><path d="M0,0H3.666" transform="translate(4.834 113.822)" fill="none" stroke="#2a5082" stroke-miterlimit="10" stroke-width="2"/><path d="M0,0V8.123" transform="translate(102.283 25.849)" fill="none" stroke="#bcc0c4" stroke-miterlimit="10" stroke-width="2"/><path d="M8.122,0H0" transform="translate(98.222 29.91)" fill="none" stroke="#bcc0c4" stroke-miterlimit="10" stroke-width="2"/><circle cx="4.062" cy="4.062" r="4.062" transform="translate(106.343 6.896)" fill="none" stroke="#bcc0c4" stroke-miterlimit="10" stroke-width="2"/><path d="M54.991,9.931H42.342a6.836,6.836,0,0,0-5.717-3.722,6.194,6.194,0,0,0-2.308.48A10.205,10.205,0,0,0,24.885,0c-5.561,0-10.069,6.266-10.08,9.932H0" transform="translate(3.945 0.721)" fill="none" stroke="#bcc0c4" stroke-miterlimit="10" stroke-width="2"/><path d="M12.831,0H0" transform="translate(0.278 25.316)" fill="none" stroke="#bcc0c4" stroke-miterlimit="10" stroke-width="2"/><path d="M0,0H3.668" transform="translate(16.775 25.316)" fill="none" stroke="#bcc0c4" stroke-miterlimit="10" stroke-width="2"/><path d="M0,0H3.664" transform="translate(62.604 10.652)" fill="none" stroke="#bcc0c4" stroke-miterlimit="10" stroke-width="2"/><path d="M0,0H3.666" transform="translate(69.936 10.652)" fill="none" stroke="#bcc0c4" stroke-miterlimit="10" stroke-width="2"/></g></svg>